<svg xmlns="http://www.w3.org/2000/svg" width="32" height="32" viewBox="0 0 32 32" fill="none">
  <defs>
    <linearGradient id="gradient" x1="0%" y1="0%" x2="100%" y2="100%">
      <stop offset="0%" style="stop-color:#00D4FF"/>
      <stop offset="100%" style="stop-color:#39FF14"/>
    </linearGradient>
  </defs>
  <rect width="32" height="32" rx="8" fill="url(#gradient)"/>
  <!-- Dumbbell icon -->
  <path d="M8 14h2v4H8v-4zm14 0h2v4h-2v-4zm-10 1h8v2h-8v-2zm-3-2h2v6H9v-6zm12 0h2v6h-2v-6z" fill="#121212"/>
  <!-- Coffee cup small -->
  <ellipse cx="24" cy="24" rx="5" ry="4" fill="#121212" opacity="0.9"/>
  <path d="M22 22h4v4a2 2 0 01-2 2h0a2 2 0 01-2-2v-4z" fill="#C8A882"/>
</svg>
